<svg data-name="Layer 1" xmlns="http://www.w3.org/2000/svg" viewBox="0 0 778.43 86.11"><path d="M81.88 85.54H56.62V71.38h13.14V14.74H56.62V.59h25a3.18 3.18 0 013.32 3.3v78.35c0 2.1-1.19 3.3-3.06 3.3M0 82.24V3.89A3.16 3.16 0 013.29.59h25v14.15H15.18v56.64H28.3v14.16H3c-1.89 0-3-1.2-3-3.3" fill="#2487c1"/><path d="M193.74 40q0-17.34-10-28.76Q174 0 158.23 0 142 0 131.68 12.17q-10.34 12-10.35 29.69 0 19.37 11.61 31.9 11.38 12.36 29.6 12.35A41.09 41.09 0 00180 82.42a55.56 55.56 0 006.79-3.69 51.14 51.14 0 005.35-3.67v-10a42.63 42.63 0 01-4.65 3.69c-1.89 1.24-4.15 2.64-6.77 4.25a35 35 0 01-17.47 4.43 31.55 31.55 0 01-23.55-9.78c-6.3-6.29-9.44-14.26-9.44-24v-2a7.63 7.63 0 01.17-1.66zm-10.53-7.19h-51.88c1.65-6 3.85-10.82 6.58-14.39q7.68-9.77 20.51-9.76 10.71 0 17 6.43 5.84 6.11 7.79 17.74zm89.16 51.64v-50q0-16.23-8.21-25.25Q255.77 0 241.88 0a27.51 27.51 0 00-14.27 3.69q-6 3.49-12.12 13.1V1.66h-8.38v82.79h8.55V26A56.37 56.37 0 01226 13.84c4.06-3.45 9.34-5.16 15.88-5.16q10.71 0 16.41 7.55c3.67 5.16 5.53 12.18 5.53 21v47.22zm76.14 0v-8.11H295.9l52.61-71.89-.72-2.79h-63.3v8.12h50.11l-52.96 71.91.9 2.76h65.97zm81.49.37V1.66h-8.38v5.72a54.1 54.1 0 00-12.14-5.53A40 40 0 00397.56 0q-17.85 0-29.25 12.73-11.22 12.73-11.23 32.63 0 17.89 10.86 29.33Q379 86.1 395.78 86.11a47.4 47.4 0 0013.71-1.83 74.19 74.19 0 0012-4.43v5zm-8.38-14.19a61.21 61.21 0 01-10.18 5.16A39.68 39.68 0 01397.37 78q-14.1 0-22.65-9-8.57-8.86-8.56-23.79 0-15.85 9.46-26.18a30.74 30.74 0 0123.71-10.35 33.24 33.24 0 0113.72 2.76 59.9 59.9 0 018.58 4.62zm50.9-26.94v40.47h-5.06V2.07h5.06v37.25h52.41V2.07H530v82.09h-5.06V43.69zm107.37 42.42c-24.63 0-39.11-19-39.11-43s14.48-43 39.11-43 39 19 39 43-14.52 43-39 43zm0-4.37c21.38 0 33.9-17.58 33.9-38.62s-12.52-38.64-33.9-38.64-34 17.59-34 38.64 12.49 38.62 34 38.62zm49.77-79.67h7.24L669 78.52h.23l31.71-76.45h7.24v82.09h-5V8.29h-.23l-31.32 75.87h-5.08L635 8.29h-.25v75.87h-5.05zm148.77 77.71v4.38h-55.77V2.07h55.17v4.37h-50.11v32.88h47.14v4.37h-47.14v36.09z" fill="#0f171f"/></svg>